<svg id="Aptamil_textlogo" data-name="Aptamil/textlogo" xmlns="http://www.w3.org/2000/svg" xmlns:xlink="http://www.w3.org/1999/xlink" width="120" height="50.321" viewBox="0 0 120 50.321">
  <defs>
    <radialGradient id="radial-gradient" cx="0.385" cy="0.755" fx="1.025165319442749" fy="0.21990175545215607" r="1.468" gradientTransform="translate(0.266) scale(0.468 1)" gradientUnits="objectBoundingBox">
      <stop offset="0.13" stop-color="#00aeef"/>
      <stop offset="0.53" stop-color="#48c4f4"/>
      <stop offset="0.76" stop-color="#6dcff6"/>
    </radialGradient>
    <radialGradient id="radial-gradient-2" cx="-0.022" cy="0.953" r="2.357" gradientTransform="translate(0.266) scale(0.468 1)" gradientUnits="objectBoundingBox">
      <stop offset="0.19" stop-color="#f1eef7"/>
      <stop offset="0.4" stop-color="#adacd6"/>
      <stop offset="0.64" stop-color="#6567b3"/>
      <stop offset="0.81" stop-color="#373b9d"/>
      <stop offset="0.9" stop-color="#262a95"/>
    </radialGradient>
  </defs>
  <g id="Aptamil" style="isolation: isolate">
    <g id="Layer_1" data-name="Layer 1">
      <path id="Path_5952" data-name="Path 5952" d="M273.081,379.066l-2.925,1.113a.5.5,0,0,0-.325.467v24.4a.5.5,0,0,0,.5.5h2.92a.5.5,0,0,0,.5-.5V379.533a.5.5,0,0,0-.67-.467Zm-104.284.991c-5.423,0-9.562,13.985-10.289,24.956a.5.5,0,0,0,.5.532h3.083a.5.5,0,0,0,.5-.467c.081-1.251.26-3.765.617-6.276h11.174c.357,2.51.536,5.025.617,6.276a.5.5,0,0,0,.5.467h3.083a.5.5,0,0,0,.5-.532C178.359,394.05,174.216,380.057,168.8,380.057ZM163.74,395.6c.837-4.334,2.531-9.253,4.781-11.373a.406.406,0,0,1,.548,0c2.246,2.137,3.944,7.055,4.781,11.373a.158.158,0,0,1-.154.187h-9.8a.158.158,0,0,1-.154-.187Zm57.491-8.55a22.689,22.689,0,0,0-6.036.906.5.5,0,0,0-.341.613l.406,1.543a.5.5,0,0,0,.613.349c6.588-1.678,8.867-.162,8.867,3.249v1.523a14.387,14.387,0,0,0-4.992-.877c-3.981,0-7,2.275-7,5.719s2.543,5.711,7.774,5.711a24.88,24.88,0,0,0,7.344-1.2,1.43,1.43,0,0,0,.955-1.353v-8.53C228.843,390.74,227.089,387.052,221.232,387.052Zm3.53,16.065a15.176,15.176,0,0,1-3.725.463c-2.088,0-4.037-.946-4.037-3.526s1.682-3.367,3.818-3.367a11.154,11.154,0,0,1,3.944.756Zm41.321-16.191-2.929,1.113a.5.5,0,0,0-.321.467v16.54a.5.5,0,0,0,.5.5h2.929a.5.5,0,0,0,.5-.5V387.393a.5.5,0,0,0-.678-.467Zm-1.288-6.28a2.14,2.14,0,0,0-2.388,2.165,2.4,2.4,0,0,0,4.781,0A2.131,2.131,0,0,0,264.795,380.646ZM209.98,402.511a18.274,18.274,0,0,1-2.437.162,2.222,2.222,0,0,1-2.376-2.539v-9.257h4.517a.5.5,0,0,0,.5-.459l.134-1.568a.5.5,0,0,0-.5-.544H205.2v-4.679a.5.5,0,0,0-.707-.459l-3.294,1.5a.491.491,0,0,0-.292.455v14.525c0,3.282.227,6.117,5.589,6.117a14.81,14.81,0,0,0,3.956-.451.5.5,0,0,0,.361-.556l-.28-1.824A.5.5,0,0,0,209.98,402.511ZM189.5,387.027c-3.578,0-8.156,1.844-8.156,3.708v20.451a.5.5,0,0,0,.678.463l3.164-1.219a.5.5,0,0,0,.321-.463v-6.028a8.214,8.214,0,0,0,5.609,1.824c4.874,0,7.2-4.9,7.2-9.5C198.323,390.135,195.284,387.027,189.5,387.027Zm-.812,15.841a6.823,6.823,0,0,1-3.168-.727V390.6a11.039,11.039,0,0,1,3.505-.552c2.258,0,5.057,1.174,5.057,6.775-.008,5.52-3.428,6.032-5.406,6.032Zm70.973-9.651v11.844a.5.5,0,0,1-.5.5h-3.128a.5.5,0,0,1-.5-.5v-11.3c0-2.47-1.239-3.769-3.578-3.769a9.806,9.806,0,0,0-4.375,1.08,9.228,9.228,0,0,1,.223,2.128v11.844a.5.5,0,0,1-.5.5h-3.132a.5.5,0,0,1-.5-.5V393.762c0-2.47-1.219-3.769-3.578-3.769a9.814,9.814,0,0,0-4.293,1.04v14.013a.5.5,0,0,1-.5.5H232.17a.5.5,0,0,1-.5-.5V389.988a.983.983,0,0,1,.682-1.085,26.2,26.2,0,0,1,9.159-1.86c2.843,0,4.7.914,5.622,2.766a4.776,4.776,0,0,1,.406-.406,8.566,8.566,0,0,1,5.808-2.356c4.245,0,6.3,2.015,6.3,6.154Zm15.776,10.906a1.414,1.414,0,0,1,1.446-1.434,1.434,1.434,0,1,1,0,2.843,1.413,1.413,0,0,1-1.458-1.426Zm2.612,0a1.1,1.1,0,0,0-1.166-1.166,1.158,1.158,0,1,0,0,2.315,1.1,1.1,0,0,0,1.154-1.158Zm-1.7-.768h.6c.386,0,.6.211.6.5a.451.451,0,0,1-.292.451l.317.548h-.382l-.28-.5h-.2v.5h-.357Zm.6.735a.211.211,0,0,0,.24-.227c0-.13-.093-.195-.24-.195h-.24v.406Z" transform="translate(-158.507 -361.364)" fill="#001689"/>
      <path id="Path_5953" data-name="Path 5953" d="M296.691,344.291c-1.787,2.571-4.744,3.542-7.1,1.913-2.031-1.393-2.461-4.992-.646-7.746s5.037-3.81,7.275-2.1S298.556,341.61,296.691,344.291ZM283.1,345.839a3.271,3.271,0,0,0,3.124-2.311,7.94,7.94,0,0,0-.219-4.119,2.925,2.925,0,0,0-3.067-1.99,3.9,3.9,0,0,0-3.79,3.6C279.014,342.666,279.912,346.127,283.1,345.839Zm-10.528-.67a2.55,2.55,0,0,0,2.957,1.844,2.821,2.821,0,0,0,2.295-1.093,4.168,4.168,0,0,0-.024-3.424,3.656,3.656,0,0,0-3.867-1.71C271.979,341.228,271.857,343.263,272.572,345.168Zm-3.428,4.3a2.175,2.175,0,0,0,2.506-1.564,2.43,2.43,0,0,0-.292-2.62,2.954,2.954,0,0,0-2.843-1.194,1.994,1.994,0,0,0-1.552,2.067C267,346.854,267.271,349.311,269.144,349.466ZM266.67,351.5a1.934,1.934,0,0,0,.406-2.5c-.569-1.186-2.344-1.824-3.355-.922s-.183,2.518.341,3.05a2.088,2.088,0,0,0,2.608.357Z" transform="translate(-220.701 -335.529)" fill="url(#radial-gradient)"/>
      <g id="Group_4300" data-name="Group 4300" transform="translate(42.542)" style="mix-blend-mode: multiply;isolation: isolate">
        <path id="Path_5954" data-name="Path 5954" d="M296.691,344.291c-1.787,2.571-4.744,3.542-7.1,1.913-2.031-1.393-2.461-4.992-.646-7.746s5.037-3.81,7.275-2.1S298.556,341.61,296.691,344.291ZM283.1,345.839a3.271,3.271,0,0,0,3.124-2.311,7.94,7.94,0,0,0-.219-4.119,2.925,2.925,0,0,0-3.067-1.99,3.9,3.9,0,0,0-3.79,3.6C279.014,342.666,279.912,346.127,283.1,345.839Zm-10.528-.67a2.55,2.55,0,0,0,2.957,1.844,2.821,2.821,0,0,0,2.295-1.093,4.168,4.168,0,0,0-.024-3.424,3.656,3.656,0,0,0-3.867-1.71C271.979,341.228,271.857,343.263,272.572,345.168Zm-3.428,4.3a2.175,2.175,0,0,0,2.506-1.564,2.43,2.43,0,0,0-.292-2.62,2.954,2.954,0,0,0-2.843-1.194,1.994,1.994,0,0,0-1.552,2.067C267,346.854,267.271,349.311,269.144,349.466ZM266.67,351.5a1.934,1.934,0,0,0,.406-2.5c-.569-1.186-2.344-1.824-3.355-.922s-.183,2.518.341,3.05a2.088,2.088,0,0,0,2.608.357Z" transform="translate(-263.244 -335.529)" fill="url(#radial-gradient-2)"/>
      </g>
    </g>
  </g>
</svg>
